<?xml version="1.0" encoding="UTF-8"?>
<svg width="512" height="512" viewBox="0 0 512 512" fill="none" xmlns="http://www.w3.org/2000/svg">
  <defs>
    <!-- Gradients for depth -->
    <linearGradient id="outerGrad" x1="0%" y1="0%" x2="100%" y2="100%">
      <stop offset="0%" style="stop-color:#3a3a3a;stop-opacity:1" />
      <stop offset="100%" style="stop-color:#1a1a1a;stop-opacity:1" />
    </linearGradient>
    <linearGradient id="segment1" x1="0%" y1="0%" x2="100%" y2="100%">
      <stop offset="0%" style="stop-color:#505050;stop-opacity:1" />
      <stop offset="100%" style="stop-color:#2a2a2a;stop-opacity:1" />
    </linearGradient>
    <linearGradient id="segment2" x1="0%" y1="0%" x2="100%" y2="100%">
      <stop offset="0%" style="stop-color:#606060;stop-opacity:1" />
      <stop offset="100%" style="stop-color:#353535;stop-opacity:1" />
    </linearGradient>
    <linearGradient id="segment3" x1="0%" y1="0%" x2="100%" y2="100%">
      <stop offset="0%" style="stop-color:#454545;stop-opacity:1" />
      <stop offset="100%" style="stop-color:#252525;stop-opacity:1" />
    </linearGradient>
    <radialGradient id="centerGrad" cx="50%" cy="50%" r="50%">
      <stop offset="0%" style="stop-color:#666666;stop-opacity:1" />
      <stop offset="100%" style="stop-color:#2d2d2d;stop-opacity:1" />
    </radialGradient>
    <filter id="shadow">
      <feGaussianBlur in="SourceAlpha" stdDeviation="8"/>
      <feOffset dx="0" dy="4" result="offsetblur"/>
      <feComponentTransfer>
        <feFuncA type="linear" slope="0.3"/>
      </feComponentTransfer>
      <feMerge>
        <feMergeNode/>
        <feMergeNode in="SourceGraphic"/>
      </feMerge>
    </filter>
  </defs>

  <!-- Outer circle -->
  <circle cx="256" cy="256" r="240" fill="url(#outerGrad)" filter="url(#shadow)"/>

  <!-- Top segment (120° arc) -->
  <path d="M 256 256 L 256 16 A 240 240 0 0 1 463.8 136 Z" fill="url(#segment1)"/>

  <!-- Bottom left segment (120° arc) -->
  <path d="M 256 256 L 48.2 376 A 240 240 0 0 1 256 16 Z" fill="url(#segment2)"/>

  <!-- Bottom right segment (120° arc) -->
  <path d="M 256 256 L 463.8 376 A 240 240 0 0 1 48.2 376 Z" fill="url(#segment3)"/>

  <!-- Center circle -->
  <circle cx="256" cy="256" r="100" fill="url(#centerGrad)"/>

  <!-- Center highlight -->
  <circle cx="256" cy="256" r="80" fill="#4a4a4a"/>

  <!-- Inner shadow for depth -->
  <circle cx="256" cy="256" r="100" fill="none" stroke="#1a1a1a" stroke-width="2" opacity="0.5"/>

  <!-- Outer border -->
  <circle cx="256" cy="256" r="240" fill="none" stroke="#0a0a0a" stroke-width="3"/>
</svg>
