<?xml version="1.0" encoding="UTF-8"?>
<svg width="64" height="64" viewBox="0 0 64 64" fill="none" xmlns="http://www.w3.org/2000/svg">
  <defs>
    <linearGradient id="outerGrad64" x1="0%" y1="0%" x2="100%" y2="100%">
      <stop offset="0%" style="stop-color:#3a3a3a;stop-opacity:1" />
      <stop offset="100%" style="stop-color:#1a1a1a;stop-opacity:1" />
    </linearGradient>
    <linearGradient id="segment1_64" x1="0%" y1="0%" x2="100%" y2="100%">
      <stop offset="0%" style="stop-color:#505050;stop-opacity:1" />
      <stop offset="100%" style="stop-color:#2a2a2a;stop-opacity:1" />
    </linearGradient>
    <linearGradient id="segment2_64" x1="0%" y1="0%" x2="100%" y2="100%">
      <stop offset="0%" style="stop-color:#606060;stop-opacity:1" />
      <stop offset="100%" style="stop-color:#353535;stop-opacity:1" />
    </linearGradient>
    <linearGradient id="segment3_64" x1="0%" y1="0%" x2="100%" y2="100%">
      <stop offset="0%" style="stop-color:#454545;stop-opacity:1" />
      <stop offset="100%" style="stop-color:#252525;stop-opacity:1" />
    </linearGradient>
    <radialGradient id="centerGrad64" cx="50%" cy="50%" r="50%">
      <stop offset="0%" style="stop-color:#666666;stop-opacity:1" />
      <stop offset="100%" style="stop-color:#2d2d2d;stop-opacity:1" />
    </radialGradient>
  </defs>

  <!-- Outer circle -->
  <circle cx="32" cy="32" r="30" fill="url(#outerGrad64)"/>

  <!-- Top segment -->
  <path d="M 32 32 L 32 2 A 30 30 0 0 1 58 17 Z" fill="url(#segment1_64)"/>

  <!-- Bottom left segment -->
  <path d="M 32 32 L 6 47 A 30 30 0 0 1 32 2 Z" fill="url(#segment2_64)"/>

  <!-- Bottom right segment -->
  <path d="M 32 32 L 58 47 A 30 30 0 0 1 6 47 Z" fill="url(#segment3_64)"/>

  <!-- Center circle -->
  <circle cx="32" cy="32" r="12" fill="url(#centerGrad64)"/>
  <circle cx="32" cy="32" r="10" fill="#4a4a4a"/>

  <!-- Borders -->
  <circle cx="32" cy="32" r="12" fill="none" stroke="#1a1a1a" stroke-width="0.5" opacity="0.5"/>
  <circle cx="32" cy="32" r="30" fill="none" stroke="#0a0a0a" stroke-width="1"/>
</svg>
