<?xml version="1.0" encoding="UTF-8"?>
<svg width="256" height="256" viewBox="0 0 256 256" fill="none" xmlns="http://www.w3.org/2000/svg">
  <defs>
    <linearGradient id="outerGrad256" x1="0%" y1="0%" x2="100%" y2="100%">
      <stop offset="0%" style="stop-color:#3a3a3a;stop-opacity:1" />
      <stop offset="100%" style="stop-color:#1a1a1a;stop-opacity:1" />
    </linearGradient>
    <linearGradient id="segment1_256" x1="0%" y1="0%" x2="100%" y2="100%">
      <stop offset="0%" style="stop-color:#505050;stop-opacity:1" />
      <stop offset="100%" style="stop-color:#2a2a2a;stop-opacity:1" />
    </linearGradient>
    <linearGradient id="segment2_256" x1="0%" y1="0%" x2="100%" y2="100%">
      <stop offset="0%" style="stop-color:#606060;stop-opacity:1" />
      <stop offset="100%" style="stop-color:#353535;stop-opacity:1" />
    </linearGradient>
    <linearGradient id="segment3_256" x1="0%" y1="0%" x2="100%" y2="100%">
      <stop offset="0%" style="stop-color:#454545;stop-opacity:1" />
      <stop offset="100%" style="stop-color:#252525;stop-opacity:1" />
    </linearGradient>
    <radialGradient id="centerGrad256" cx="50%" cy="50%" r="50%">
      <stop offset="0%" style="stop-color:#666666;stop-opacity:1" />
      <stop offset="100%" style="stop-color:#2d2d2d;stop-opacity:1" />
    </radialGradient>
  </defs>

  <!-- Outer circle -->
  <circle cx="128" cy="128" r="120" fill="url(#outerGrad256)"/>

  <!-- Top segment -->
  <path d="M 128 128 L 128 8 A 120 120 0 0 1 231.9 68 Z" fill="url(#segment1_256)"/>

  <!-- Bottom left segment -->
  <path d="M 128 128 L 24.1 188 A 120 120 0 0 1 128 8 Z" fill="url(#segment2_256)"/>

  <!-- Bottom right segment -->
  <path d="M 128 128 L 231.9 188 A 120 120 0 0 1 24.1 188 Z" fill="url(#segment3_256)"/>

  <!-- Center circle -->
  <circle cx="128" cy="128" r="50" fill="url(#centerGrad256)"/>
  <circle cx="128" cy="128" r="40" fill="#4a4a4a"/>

  <!-- Borders -->
  <circle cx="128" cy="128" r="50" fill="none" stroke="#1a1a1a" stroke-width="1" opacity="0.5"/>
  <circle cx="128" cy="128" r="120" fill="none" stroke="#0a0a0a" stroke-width="2"/>
</svg>
